<?xml version="1.0" encoding="UTF-8"?> <svg xmlns="http://www.w3.org/2000/svg" width="1440" height="854" viewBox="0 0 1440 854" fill="none"><path fill-rule="evenodd" clip-rule="evenodd" d="M2093.19 -803.834C2095.53 -806.177 2098.6 -807.349 2101.67 -807.349C2104.74 -807.349 2107.82 -806.177 2110.16 -803.834L3450.83 536.839C3455.52 541.526 3455.52 549.124 3450.83 553.81L2110.16 1894.49C2107.82 1896.83 2104.75 1898 2101.67 1898C2098.6 1898 2095.53 1896.83 2093.19 1894.49L752.514 553.811C747.829 549.125 747.829 541.527 752.514 536.84L2093.19 -803.834ZM2108.74 -802.42C2106.86 -804.309 2104.35 -805.349 2101.67 -805.349C2099 -805.349 2096.49 -804.309 2094.6 -802.42L753.928 538.255C750.029 542.154 750.029 548.498 753.928 552.397L2094.6 1893.07C2096.49 1894.96 2099 1896 2101.67 1896C2104.35 1896 2106.86 1894.96 2108.75 1893.07L3449.42 552.396C3453.32 548.497 3453.32 542.153 3449.42 538.254L2108.74 -802.42Z" fill="#5F5A69"></path><path fill-rule="evenodd" clip-rule="evenodd" d="M-1240.33 -1266.35C-1243.4 -1266.35 -1246.47 -1265.18 -1248.81 -1262.83L-2589.49 77.8403C-2594.17 82.5273 -2594.17 90.1254 -2589.49 94.8114L-1248.81 1435.49C-1246.47 1437.83 -1243.4 1439 -1240.33 1439C-1237.25 1439 -1234.18 1437.83 -1231.84 1435.49L108.833 94.8104C113.521 90.1244 113.521 82.5264 108.833 77.8394L-1231.84 -1262.83C-1234.18 -1265.18 -1237.26 -1266.35 -1240.33 -1266.35ZM-1240.33 -1264.35C-1237.65 -1264.35 -1235.14 -1263.31 -1233.26 -1261.42L107.419 79.2544C111.319 83.1534 111.319 89.4973 107.419 93.3964L-1233.25 1434.07C-1235.14 1435.96 -1237.65 1437 -1240.33 1437C-1243 1437 -1245.51 1435.96 -1247.4 1434.07L-2588.07 93.3973C-2591.97 89.4983 -2591.97 83.1544 -2588.07 79.2554L-1247.4 -1261.42C-1245.51 -1263.31 -1243 -1264.35 -1240.33 -1264.35Z" fill="#5F5A69"></path></svg> 